#!OML:ASF F:\VICON\USERDATA\INSTALL\Justin_Nancy\Justin_Nancy.ASF
:FULLY-SPECIFIED
:DEGREES
176
root -0.428 17.7524 29.4785 -0.351647 0.413646 -1.00724
lowerback 6.41712 -0.31367 1.34306
upperback -1.21265 -0.155508 3.21954
thorax -4.85816 -0.0671856 2.60661
lowerneck -17.6469 -3.7094 -10.2055
upperneck 18.9096 -3.53879 5.43074
head 9.14316 -1.80995 3.08917
rclavicle 3.17745e-015 5.56597e-015
rhumerus -35.0157 -15.0046 -78.5561
rradius 56.1971
rwrist -6.2075
rhand -22.303 15.567
rfingers 7.12502
rthumb 4.11617 -14.373
lclavicle 3.17745e-015 5.56597e-015
lhumerus -47.3799 24.4942 74.0386
lradius 24.8589
lwrist -5.43207
lhand -14.2971 24.214
lfingers 7.12502
lthumb 11.8426 53.8591
rfemur -9.86906 4.77091 20.9253
rtibia 34.7436
rfoot -7.96988 -0.921868
rtoes 0.569217
lfemur -18.2391 -1.82462 -20.9137
ltibia 35.5115
lfoot -3.64887 2.18375
ltoes -10.7732
177
root -0.412944 17.7688 29.5245 -0.277493 0.5433 -1.1712
lowerback 6.51266 -0.324084 1.44735
upperback -1.24555 -0.153735 3.27076
thorax -4.94719 -0.0681956 2.6029
lowerneck -17.4354 -3.73668 -10.2561
upperneck 18.629 -3.59396 5.50082
head 9.01508 -1.83057 3.11247
rclavicle -5.46347e-015 1.11319e-014
rhumerus -35.1173 -15.1379 -78.4127
rradius 55.2166
rwrist -6.11005
rhand -22.4584 15.0619
rfingers 7.12502
rthumb 3.96616 -14.881
lclavicle -5.46347e-015 1.11319e-014
lhumerus -46.9028 23.3498 75.1487
lradius 25.8445
lwrist -4.31467
lhand -14.5024 24.1872
lfingers 7.12502
lthumb 11.6446 53.8436
rfemur -9.81207 4.72054 20.9854
rtibia 34.6941
rfoot -7.77666 -0.772253
rtoes 1.09931
lfemur -18.2282 -1.74628 -20.7675
ltibia 35.5422
lfoot -3.4841 1.92626
ltoes -10.8446
178
root -0.395215 17.778 29.5758 -0.23282 0.665943 -1.2731
lowerback 6.54507 -0.292978 1.56146
upperback -1.25404 -0.100928 3.27429
thorax -4.97657 -0.0451975 2.53717
lowerneck -17.2548 -3.78129 -10.2762
upperneck 18.485 -3.68239 5.57389
head 8.9423 -1.86601 3.12892
rclavicle 2.55625e-015 9.54166e-015
rhumerus -35.2073 -15.3705 -78.2525
rradius 54.212
rwrist -5.83801
rhand -22.5972 14.1487
rfingers 7.12502
rthumb 3.8321 -15.7966
lclavicle 2.55625e-015 9.54166e-015
lhumerus -46.4515 22.3378 76.065
lradius 26.8584
lwrist -3.65344
lhand -14.3434 24.1413
lfingers 7.12502
lthumb 11.798 53.789
rfemur -9.71423 4.51366 20.9563
rtibia 34.7276
rfoot -7.67537 -0.587929
rtoes 0.493668
lfemur -18.0792 -1.58354 -20.7312
ltibia 35.5128
lfoot -3.40417 1.65099
ltoes -10.9686
179
root -0.377587 17.786 29.634 -0.263022 0.789036 -0.937179
lowerback 6.39413 -0.258284 1.21944
upperback -1.05121 -0.0994796 3.18571
thorax -4.67825 -0.0373695 2.63254
lowerneck -17.2974 -3.81426 -10.3157
upperneck 18.3363 -3.703 5.55158
head 8.90136 -1.87791 3.1228
rclavicle 4.24902e-015 -1.66979e-014
rhumerus -34.9585 -15.4549 -78.2294
rradius 53.2334
rwrist -5.53206
rhand -22.8263 13.4393
rfingers 7.12502
rthumb 3.61083 -16.5099
lclavicle 4.24902e-015 -1.66979e-014
lhumerus -45.5944 21.7921 76.8773
lradius 27.5294
lwrist -3.4663
lhand -14.6283 24.0328
lfingers 7.12502
lthumb 11.5232 53.696
rfemur -9.51924 4.21228 20.4357
rtibia 34.8608
rfoot -7.68984 -0.287499
rtoes 0.332576
lfemur -17.7666 -1.38593 -21.197
ltibia 35.4304
lfoot -3.44954 1.40641
ltoes -10.888
180
root -0.362267 17.794 29.6835 -0.293878 0.937158 -0.665642
lowerback 6.42099 -0.240873 0.927284
upperback -0.874857 -0.108881 3.09459
thorax -4.50849 -0.0368187 2.7011
lowerneck -17.5914 -3.83825 -10.2949
upperneck 18.312 -3.71066 5.56277
head 8.94617 -1.87409 3.11989
rclavicle -1.55301e-015 1.11319e-014
rhumerus -34.6924 -15.5163 -78.2654
rradius 52.1973
rwrist -5.20339
rhand -22.433 13.4267
rfingers 7.12502
rthumb 3.99066 -16.5157
lclavicle -1.55301e-015 1.11319e-014
lhumerus -44.6594 21.225 77.6202
lradius 28.017
lwrist -3.33327
lhand -15.0412 23.5468
lfingers 7.12502
lthumb 11.125 53.2319
rfemur -9.37137 3.91162 20.008
rtibia 35.0522
rfoot -7.75122 -0.0276985
rtoes -0.135351
lfemur -17.5319 -1.20435 -21.5749
ltibia 35.3758
lfoot -3.49983 1.21081
ltoes -11.0106
181
root -0.347662 17.7996 29.7247 -0.231054 0.883264 -0.834015
lowerback 6.44177 -0.144345 1.02478
upperback -0.785722 0.0283458 3.16024
thorax -4.43308 0.0290644 2.69974
lowerneck -17.8706 -3.90075 -10.4243
upperneck 18.3838 -3.76764 5.72253
head 9.03182 -1.88964 3.18809
rclavicle -8.69683e-017 -3.97569e-015
rhumerus -34.516 -15.4728 -78.168
rradius 51.0871
rwrist -4.78869
rhand -22.2486 12.992
rfingers 7.12502
rthumb 4.1687 -16.947
lclavicle -8.69683e-017 -3.97569e-015
lhumerus -43.9569 20.8079 78.2231
lradius 28.8839
lwrist -3.72479
lhand -14.7431 23.932
lfingers 7.12502
lthumb 11.4125 53.6014
rfemur -9.43296 3.85958 20.0756
rtibia 35.2886
rfoot -7.7769 0.201108
rtoes -0.247314
lfemur -17.4522 -1.21057 -21.448
ltibia 35.3525
lfoot -3.52015 1.28324
ltoes -11.3362
182
root -0.331423 17.8004 29.7662 -0.0500384 0.851093 -0.902165
lowerback 6.41621 -0.0659691 1.06649
upperback -0.871312 0.139478 3.18429
thorax -4.51224 0.0840591 2.69073
lowerneck -17.7834 -3.94248 -10.5232
upperneck 18.4589 -3.81826 5.75988
head 9.04965 -1.91869 3.21202
rclavicle 1.23371e-014 5.56597e-015
rhumerus -34.534 -15.2529 -78.0596
rradius 49.8825
rwrist -4.24029
rhand -23.0303 10.8446
rfingers 7.12502
rthumb 3.41385 -19.1078
lclavicle 1.23371e-014 5.56597e-015
lhumerus -43.5565 20.2239 78.8005
lradius 29.9589
lwrist -3.94244
lhand -14.3872 24.7343
lfingers 7.12502
lthumb 11.7557 54.3844
rfemur -9.67274 3.60941 19.9912
rtibia 35.5466
rfoot -7.67046 0.598353
rtoes -0.613433
lfemur -17.5242 -1.32575 -21.438
ltibia 35.3846
lfoot -3.56325 1.41677
ltoes -11.2832
183
root -0.311235 17.8025 29.8091 0.18648 0.919931 -0.88057
lowerback 6.31982 -0.0307517 1.10825
upperback -0.957339 0.187196 3.12664
thorax -4.54876 0.106299 2.60235
lowerneck -17.828 -3.95781 -10.4175
upperneck 18.5979 -3.84287 5.64815
head 9.10342 -1.936 3.15363
rclavicle -5.69021e-015 -1.35174e-014
rhumerus -34.5976 -16.3711 -77.1699
rradius 47.2747
rwrist -0.942675
rhand -19.2309 14.601
rfingers 7.12502
rthumb 7.08228 -15.2605
lclavicle -5.69021e-015 -1.35174e-014
lhumerus -43.2936 19.3234 79.4616
lradius 31.124
lwrist -3.20873
lhand -15.1983 24.1295
lfingers 7.12502
lthumb 10.9734 53.8227
rfemur -9.96577 3.17513 19.7662
rtibia 35.8071
rfoot -7.45868 1.1034
rtoes -0.435637
lfemur -17.6468 -1.45998 -21.5541
ltibia 35.4637
lfoot -3.66854 1.54582
ltoes -10.9435
184
root -0.298487 17.8036 29.8523 0.267154 0.8763 -0.918434
lowerback 6.13124 0.0506408 1.13802
upperback -0.78253 0.284191 3.07713
thorax -4.26319 0.151774 2.52153
lowerneck -18.1615 -4.00104 -10.2694
upperneck 18.6834 -3.90149 5.61269
head 9.19405 -1.95274 3.10745
rclavicle 9.88954e-015 -1.43125e-014
rhumerus -34.2636 -16.632 -77.1431
rradius 45.8946
rwrist 0.221276
rhand -18.447 15.0264
rfingers 7.12502
rthumb 7.83896 -14.8083
lclavicle 9.88954e-015 -1.43125e-014
lhumerus -42.7213 18.5061 80.1388
lradius 32.4278
lwrist -2.54843
lhand -16.0784 23.0365
lfingers 7.12502
lthumb 10.1245 52.773
rfemur -10.0984 2.97244 19.6919
rtibia 36.0968
rfoot -7.3279 1.47127
rtoes -0.064784
lfemur -17.5972 -1.46892 -21.5614
ltibia 35.5491
lfoot -3.89798 1.61229
ltoes -10.6957
185
root -0.285122 17.797 29.8965 0.254609 0.760702 -0.985881
lowerback 6.11254 0.165553 1.18938
upperback -0.701996 0.436703 3.04439
thorax -4.17363 0.225457 2.443
lowerneck -18.0819 -4.06283 -10.2454
upperneck 18.5459 -4.01184 5.6718
head 9.14224 -1.99534 3.10799
rclavicle -1.56543e-015 1.74931e-014
rhumerus -34.3646 -16.7937 -76.9841
rradius 44.8379
rwrist 1.47318
rhand -17.4187 15.626
rfingers 7.12502
rthumb 8.8313 -14.1692
lclavicle -1.56543e-015 1.74931e-014
lhumerus -42.1556 17.6644 80.6943
lradius 33.5914
lwrist -2.18693
lhand -16.0438 22.5128
lfingers 7.12502
lthumb 10.1579 52.2476
rfemur -10.1128 2.78302 19.6589
rtibia 36.3722
rfoot -7.17165 1.84199
rtoes 0.163759
lfemur -17.4643 -1.33021 -21.5387
ltibia 35.6607
lfoot -4.15903 1.60634
ltoes -10.818
